<?xml version="1.0" encoding="UTF-8"?><svg id="Layer_2" xmlns="http://www.w3.org/2000/svg" viewBox="0 0 21.3 35.21"><defs><style>.cls-1{fill:lime;}.cls-2{fill:blue;}.cls-3{fill:#fff;}.cls-4{fill:red;}.cls-5{fill:#00f600;}</style></defs><g id="Layer_1-2"><polygon class="cls-5" points="11.8 16.32 11.8 11.16 15.68 12.79 15.67 17.95 11.8 16.32"/><path d="M11.91,11.33l3.66,1.54v4.93s-3.66-1.54-3.66-1.54v-4.93M11.7,11v.32s0,4.93,0,4.93v.14s.13.06.13.06l3.66,1.54.3.12v-.32s0-4.93,0-4.93v-.14s-.13-.06-.13-.06l-3.66-1.54-.3-.12h0Z"/><polygon class="cls-4" points="7.97 14.71 7.97 9.55 11.84 11.18 11.84 16.34 7.97 14.71"/><path d="M8.08,9.72l3.66,1.54v4.92s-3.66-1.54-3.66-1.54v-4.93M7.86,9.39v.32s0,4.92,0,4.92v.14s.13.06.13.06l3.66,1.54.3.12v-.32s0-4.92,0-4.92v-.14s-.13-.06-.13-.06l-3.66-1.54-.3-.12h0Z"/><polygon class="cls-2" points="4.13 13.1 4.14 7.94 8.01 9.57 8.01 14.73 4.13 13.1"/><path d="M4.25,8.11l3.66,1.54v4.93s-3.66-1.54-3.66-1.54v-4.93M4.03,7.78v.32s0,4.93,0,4.93v.14s.13.06.13.06l3.66,1.54.3.12v-.32s0-4.93,0-4.93v-.14s-.13-.06-.13-.06l-3.66-1.54-.3-.12h0Z"/><polygon class="cls-3" points=".3 11.49 .31 6.33 4.18 7.96 4.17 13.12 .3 11.49"/><path d="M.41,6.5l3.66,1.54v4.93s-3.66-1.54-3.66-1.54v-4.93M.2,6.17v.32s0,4.93,0,4.93v.14s.13.06.13.06l3.66,1.54.3.12v-.32s0-4.93,0-4.93v-.14s-.13-.06-.13-.06L.5,6.3l-.3-.12H.2Z"/><polygon class="cls-3" points="15.63 17.93 15.64 12.77 19.51 14.4 19.51 19.56 15.63 17.93"/><path d="M15.74,12.94l3.66,1.54v4.93s-3.66-1.54-3.66-1.54v-4.92M15.53,12.61v.32s0,4.92,0,4.92v.14s.13.06.13.06l3.66,1.54.3.12v-.32s0-4.92,0-4.92v-.14s-.13-.06-.13-.06l-3.66-1.54-.3-.12h0Z"/><polygon class="cls-5" points="11.8 21.48 11.8 16.32 15.67 17.95 15.67 23.11 11.8 21.48"/><path d="M11.91,16.49l3.66,1.54v4.93s-3.66-1.54-3.66-1.54v-4.93M11.69,16.16v.32s0,4.93,0,4.93v.14s.13.06.13.06l3.66,1.54.3.12v-.32s0-4.93,0-4.93v-.14s-.13-.06-.13-.06l-3.66-1.54-.3-.12h0Z"/><polygon class="cls-3" points="7.96 19.87 7.97 14.71 11.84 16.34 11.83 21.5 7.96 19.87"/><path d="M8.07,14.88l3.66,1.54v4.92s-3.66-1.54-3.66-1.54v-4.93M7.86,14.55v.32s0,4.92,0,4.92v.14s.13.06.13.06l3.66,1.54.3.12v-.32s0-4.92,0-4.92v-.14s-.13-.06-.13-.06l-3.66-1.54-.3-.12h0Z"/><polygon class="cls-4" points="4.13 18.26 4.13 13.1 8.01 14.73 8 19.89 4.13 18.26"/><path d="M4.24,13.27l3.66,1.54v4.93s-3.66-1.54-3.66-1.54v-4.93M4.03,12.94v.32s0,4.93,0,4.93v.14s.13.06.13.06l3.66,1.54.3.12v-.32s0-4.93,0-4.93v-.14s-.13-.06-.13-.06l-3.66-1.54-.3-.12h0Z"/><polygon class="cls-5" points=".3 16.65 .3 11.49 4.17 13.12 4.17 18.28 .3 16.65"/><path d="M.41,11.66l3.66,1.54v4.93s-3.66-1.54-3.66-1.54v-4.92M.19,11.33v.32s0,4.92,0,4.92v.14s.13.06.13.06l3.66,1.54.3.12v-.32s0-4.92,0-4.92v-.14s-.13-.06-.13-.06l-3.66-1.54-.3-.12H.19Z"/><polygon class="cls-5" points="15.63 23.09 15.63 17.93 19.51 19.56 19.5 24.72 15.63 23.09"/><path d="M15.74,18.1l3.66,1.54v4.93s-3.66-1.54-3.66-1.54v-4.93M15.53,17.77v.32s0,4.93,0,4.93v.14s.13.06.13.06l3.66,1.54.3.12v-.32s0-4.93,0-4.93v-.14s-.13-.06-.13-.06l-3.66-1.54-.3-.12h0Z"/><polygon class="cls-4" points="11.79 26.64 11.8 21.48 15.67 23.11 15.66 28.27 11.79 26.64"/><path d="M11.9,21.65l3.66,1.54v4.93s-3.66-1.54-3.66-1.54v-4.93M11.69,21.32v.32s0,4.93,0,4.93v.14s.13.06.13.06l3.66,1.54.3.12v-.32s0-4.93,0-4.93v-.14s-.13-.06-.13-.06l-3.66-1.54-.3-.12h0Z"/><polygon class="cls-2" points="7.96 25.03 7.96 19.87 11.83 21.5 11.83 26.66 7.96 25.03"/><path d="M8.07,20.03l3.66,1.54v4.92s-3.66-1.54-3.66-1.54v-4.93M7.86,19.71v.32s0,4.92,0,4.92v.14s.13.06.13.06l3.66,1.54.3.12v-.32s0-4.92,0-4.92v-.14s-.13-.06-.13-.06l-3.66-1.54-.3-.12h0Z"/><polygon class="cls-2" points="4.13 23.42 4.13 18.26 8 19.89 8 25.05 4.13 23.42"/><path d="M4.24,18.42l3.66,1.54v4.93s-3.66-1.54-3.66-1.54v-4.93M4.02,18.1v.32s0,4.93,0,4.93v.14s.13.06.13.06l3.66,1.54.3.12v-.32s0-4.93,0-4.93v-.14s-.13-.06-.13-.06l-3.66-1.54-.3-.12h0Z"/><polygon class="cls-4" points=".29 21.81 .3 16.65 4.17 18.28 4.16 23.44 .29 21.81"/><path d="M.4,16.81l3.66,1.54v4.93s-3.66-1.54-3.66-1.54v-4.92M.19,16.49v.32s0,4.92,0,4.92v.14s.13.06.13.06l3.66,1.54.3.12v-.32s0-4.92,0-4.92v-.14s-.13-.06-.13-.06l-3.66-1.54-.3-.12H.19Z"/><polygon class="cls-4" points="15.62 28.25 15.63 23.09 19.5 24.72 19.5 29.88 15.62 28.25"/><path d="M15.74,23.26l3.66,1.54v4.93s-3.66-1.54-3.66-1.54v-4.93M15.52,22.93v.32s0,4.93,0,4.93v.14s.13.06.13.06l3.66,1.54.3.12v-.32s0-4.93,0-4.93v-.14s-.13-.06-.13-.06l-3.66-1.54-.3-.12h0Z"/><polygon class="cls-2" points="11.79 31.8 11.79 26.64 15.66 28.27 15.66 33.43 11.79 31.8"/><path d="M11.9,26.8l3.66,1.54v4.92s-3.66-1.54-3.66-1.54v-4.93M11.68,26.48v.32s0,4.93,0,4.93v.14s.13.06.13.06l3.66,1.54.3.12v-.32s0-4.93,0-4.93v-.14s-.13-.06-.13-.06l-3.66-1.54-.3-.12h0Z"/><polygon class="cls-5" points="7.95 30.19 7.96 25.03 11.83 26.66 11.83 31.82 7.95 30.19"/><path d="M8.07,25.19l3.66,1.54v4.93s-3.66-1.54-3.66-1.54v-4.92M7.85,24.87v.32s0,4.93,0,4.93v.14s.13.06.13.06l3.66,1.54.3.12v-.32s0-4.93,0-4.93v-.14s-.13-.06-.13-.06l-3.66-1.54-.3-.12h0Z"/><polygon class="cls-5" points="4.12 28.58 4.12 23.42 8 25.05 7.99 30.21 4.12 28.58"/><path d="M4.23,23.58l3.66,1.54v4.92s-3.66-1.54-3.66-1.54v-4.93M4.02,23.26v.32s0,4.93,0,4.93v.14s.13.06.13.06l3.66,1.54.3.12v-.32s0-4.93,0-4.93v-.14s-.13-.06-.13-.06l-3.66-1.54-.3-.12h0Z"/><polygon class="cls-3" points=".29 26.97 .29 21.81 4.16 23.44 4.16 28.6 .29 26.97"/><path d="M.4,21.97l3.66,1.54v4.92s-3.66-1.54-3.66-1.54v-4.92M.19,21.65v.32s0,4.93,0,4.93v.14s.13.06.13.06l3.66,1.54.3.12v-.32s0-4.92,0-4.92v-.14s-.13-.06-.13-.06l-3.66-1.54-.3-.12H.19Z"/><polygon class="cls-3" points="15.62 33.41 15.62 28.25 19.5 29.88 19.49 35.04 15.62 33.41"/><path d="M15.73,28.41l3.66,1.54v4.92s-3.66-1.54-3.66-1.54v-4.93M15.52,28.09v.32s0,4.93,0,4.93v.14s.13.06.13.06l3.66,1.54.3.12v-.32s0-4.93,0-4.93v-.14s-.13-.06-.13-.06l-3.66-1.54-.3-.12h0Z"/><polygon class="cls-5" points="11.8 11.16 11.81 6.01 15.68 7.63 15.68 12.79 11.8 11.16"/><path d="M11.92,6.17l3.66,1.54v4.93s-3.66-1.54-3.66-1.54v-4.93M11.7,5.84v.32s0,4.93,0,4.93v.14s.13.06.13.06l3.66,1.54.3.12v-.32s0-4.93,0-4.93v-.14s-.13-.06-.13-.06l-3.66-1.54-.3-.12h0Z"/><polygon class="cls-4" points="7.97 9.55 7.98 4.4 11.85 6.02 11.84 11.18 7.97 9.55"/><path d="M8.08,4.56l3.66,1.54v4.92s-3.66-1.54-3.66-1.54v-4.93M7.87,4.23v.32s0,4.92,0,4.92v.14s.13.06.13.06l3.66,1.54.3.12v-.32s0-4.92,0-4.92v-.14s-.13-.06-.13-.06l-3.66-1.54-.3-.12h0Z"/><polygon class="cls-2" points="4.14 7.94 4.14 2.78 8.02 4.41 8.01 9.57 4.14 7.94"/><path d="M4.25,2.95l3.66,1.54v4.93s-3.66-1.54-3.66-1.54V2.95M4.04,2.62v.32s0,4.92,0,4.92v.14s.13.06.13.06l3.66,1.54.3.12v-.32s0-4.92,0-4.92v-.14s-.13-.06-.13-.06l-3.66-1.54-.3-.12h0Z"/><polygon class="cls-5" points=".31 6.33 .31 1.17 4.18 2.8 4.18 7.96 .31 6.33"/><path d="M.42,1.34l3.66,1.54v4.93S.41,6.26.41,6.26V1.34M.2,1.01v.32s0,4.93,0,4.93v.14s.13.06.13.06l3.66,1.54.3.12v-.32s0-4.93,0-4.93v-.14s-.13-.06-.13-.06L.5,1.14l-.3-.12H.2Z"/><polygon class="cls-5" points="15.64 12.77 15.64 7.61 19.51 9.24 19.51 14.4 15.64 12.77"/><path d="M15.75,7.78l3.66,1.54v4.93s-3.66-1.54-3.66-1.54v-4.92M15.54,7.45v.32s0,4.92,0,4.92v.14s.13.06.13.06l3.66,1.54.3.12v-.32s0-4.92,0-4.92v-.14s-.13-.06-.13-.06l-3.66-1.54-.3-.12h0Z"/><polygon class="cls-3" points="19.33 14.35 21.19 13.18 21.18 18.36 19.33 19.53 19.33 14.35"/><path d="M21.08,13.38v4.92s-1.64,1.03-1.64,1.03v-4.92s1.64-1.03,1.64-1.03M21.3,12.99l-.33.21-1.64,1.03-.1.06v.12s0,4.92,0,4.92v.39s.33-.21.33-.21l1.64-1.03.1-.06v-.12s0-4.92,0-4.92v-.39h0ZM21.08,13.59h0,0Z"/><polygon class="cls-1" points="19.33 19.51 21.18 18.34 21.18 23.52 19.32 24.69 19.33 19.51"/><path d="M21.08,18.54v4.92s-1.64,1.03-1.64,1.03v-4.93s1.64-1.03,1.64-1.03M21.29,18.15l-.33.21-1.64,1.03-.1.06v.12s0,4.93,0,4.93v.39s.33-.21.33-.21l1.64-1.03.1-.06v-.12s0-4.92,0-4.92v-.39h0ZM21.08,18.75h0,0Z"/><polygon class="cls-4" points="19.32 24.67 21.18 23.5 21.17 28.68 19.32 29.85 19.32 24.67"/><path d="M21.07,23.7v4.93s-1.64,1.03-1.64,1.03v-4.93s1.64-1.03,1.64-1.03M21.29,23.31l-.33.21-1.64,1.03-.1.06v.12s0,4.93,0,4.93v.39s.33-.21.33-.21l1.64-1.03.1-.06v-.12s0-4.93,0-4.93v-.39h0ZM21.07,23.91h0,0Z"/><polygon class="cls-3" points="19.32 29.83 21.17 28.66 21.17 33.84 19.31 35.01 19.32 29.83"/><path d="M21.07,28.86v4.93s-1.64,1.03-1.64,1.03v-4.93s1.64-1.03,1.64-1.03M21.28,28.47l-.33.21-1.64,1.03-.1.06v.12s0,4.93,0,4.93v.39s.33-.21.33-.21l1.64-1.03.1-.06v-.12s0-4.93,0-4.93v-.39h0ZM21.07,29.07h0,0Z"/><polygon class="cls-5" points="11.73 6.17 13.58 4.95 17.48 6.59 15.62 7.81 11.73 6.17"/><path d="M13.59,5.07l3.66,1.54-1.64,1.08-3.66-1.54,1.64-1.08M13.57,4.83l-.1.06-1.64,1.08-.34.22.37.16,3.66,1.54.11.04.1-.06,1.64-1.08.34-.22-.37-.16-3.66-1.54-.11-.04h0Z"/><polygon class="cls-4" points="7.89 4.56 9.75 3.34 13.65 4.98 11.79 6.2 7.89 4.56"/><path d="M9.76,3.46l3.66,1.54-1.64,1.08-3.66-1.54,1.64-1.08M9.74,3.22l-.1.06-1.64,1.08-.34.22.37.16,3.66,1.54.11.04.1-.06,1.64-1.08.34-.22-.37-.16-3.66-1.54-.11-.04h0Z"/><polygon class="cls-2" points="4.06 2.95 5.92 1.73 9.81 3.37 7.96 4.59 4.06 2.95"/><path d="M5.93,1.85l3.66,1.54-1.64,1.08-3.66-1.54,1.64-1.08M5.91,1.61l-.1.06-1.64,1.08-.34.22.37.16,3.66,1.54.11.04.1-.06,1.64-1.08.34-.22-.37-.16-3.66-1.54-.11-.04h0Z"/><polygon class="cls-1" points=".23 1.34 2.08 .12 5.98 1.76 4.12 2.98 .23 1.34"/><path d="M2.09.24l3.66,1.54-1.64,1.08L.45,1.32,2.09.24M2.07,0l-.1.06L.34,1.14l-.34.22.37.16,3.66,1.54.11.04.1-.06,1.64-1.08.34-.22-.37-.16L2.18.04l-.11-.04h0Z"/><path class="cls-1" d="M19.37,9.31l-3.65-1.41s-.06-.05-.07-.09.01-.08.05-.1l1.66-1.12,3.72,1.41s.06.05.07.09-.01.08-.05.1l-1.64,1.11s-.04.02-.06.02c-.01,0-.03,0-.04,0Z"/><path d="M17.43,6.68l3.62,1.42-1.64,1.11-3.65-1.41,1.66-1.12M17.43,6.47s-.08.01-.12.04l-1.66,1.12c-.07.04-.1.12-.09.2,0,.08.06.15.14.18l3.65,1.41s.05.01.08.01c.04,0,.08-.01.12-.04l1.64-1.11c.07-.04.1-.12.09-.2s-.06-.15-.13-.18l-3.62-1.42s-.05-.01-.08-.01h0Z"/><path class="cls-1" d="M19.44,14.29s-.04,0-.05-.01c-.03-.02-.06-.05-.06-.09l-.02-4.87s.02-.07.05-.09l1.67-1.09s.04-.02.06-.02c.02,0,.04,0,.05.01.03.02.06.06.06.09v4.92s-.02.07-.05.09l-1.64,1.04s-.04.02-.06.02Z"/><path d="M21.09,8.22h0M21.09,8.22v4.92s-1.64,1.03-1.64,1.03l-.02-4.87,1.67-1.09M21.09,8s0,0,0,0c-.04,0-.08.01-.11.04l-1.67,1.09c-.06.04-.1.11-.1.18l.02,4.87c0,.08.04.15.11.19.03.02.07.03.1.03.04,0,.08-.01.11-.03l1.64-1.03c.06-.04.1-.11.1-.18v-4.89s0-.02,0-.03c0-.12-.09-.21-.21-.21h0s0,0,0,0h0ZM21.09,8.43h0,0Z"/></g></svg>